<?xml version="1.0" encoding="utf-8"?>
<!-- Generator: Adobe Illustrator 14.0.0, SVG Export Plug-In . SVG Version: 6.00 Build 43363)  -->
<!DOCTYPE svg PUBLIC "-//W3C//DTD SVG 1.1//EN" "http://www.w3.org/Graphics/SVG/1.1/DTD/svg11.dtd">
<svg version="1.1" id="Global_Nav_Small_Icons" xmlns="http://www.w3.org/2000/svg" xmlns:xlink="http://www.w3.org/1999/xlink"
	 x="0px" y="0px" width="21px" height="48px" viewBox="0 0 21 48" enable-background="new 0 0 21 48" xml:space="preserve">
<g>
	<path fill="#FFFFFF" d="M2.635,21.081c1.304-3.589,4.813-5.737,8.442-5.479c-0.818,0.762-1.483,1.856-1.419,3.402
		c0.104,0.943,0.396,1.681,0.583,2.098c0.503,1.105,2.32,3.557,3.047,5.702c0.723,2.148-0.49,4.036-0.49,4.036
		c4.51-2.049,2.851-5.729,1.223-8.502c-1.625-2.775-2.099-4.3-1.623-5.609c0.098-0.268,0.276-0.535,0.484-0.783
		c0.459-0.549,1.084-1.013,1.4-1.233c-1.166-0.578-2.709-0.704-2.709-0.704v0.002C7.101,13.52,2.71,16.112,1.104,20.524
		c-1.654,4.548,0.2,9.508,4.174,11.935l0.514-0.323c0.305-0.195,0.651-0.46,0.938-0.729C2.996,29.529,1.17,25.106,2.635,21.081z"/>
	<path fill="#FFFFFF" d="M15.72,15.542l-0.51,0.323c-0.307,0.192-0.653,0.46-0.941,0.729c3.74,1.878,5.565,6.298,4.098,10.326
		c-1.306,3.589-4.814,5.737-8.442,5.478c0.821-0.76,1.483-1.855,1.418-3.4c-0.103-0.944-0.396-1.683-0.586-2.102
		c-0.499-1.104-2.317-3.552-3.043-5.7C6.986,19.05,8.201,17.16,8.201,17.16c-4.506,2.05-2.847,5.726-1.224,8.502
		c1.626,2.775,2.101,4.299,1.622,5.609c-0.098,0.268-0.273,0.534-0.479,0.781c-0.462,0.55-1.086,1.014-1.404,1.233
		c1.166,0.579,2.708,0.705,2.708,0.705v-0.002c4.472,0.49,8.863-2.102,10.47-6.513C21.551,22.931,19.694,17.97,15.72,15.542z"/>
</g>
</svg>
