<?xml version="1.0" encoding="utf-8"?>
<!-- Generator: Adobe Illustrator 14.0.0, SVG Export Plug-In . SVG Version: 6.00 Build 43363)  -->
<!DOCTYPE svg PUBLIC "-//W3C//DTD SVG 1.1//EN" "http://www.w3.org/Graphics/SVG/1.1/DTD/svg11.dtd">
<svg version="1.1" id="Calque_1" xmlns="http://www.w3.org/2000/svg" xmlns:xlink="http://www.w3.org/1999/xlink" x="0px" y="0px"
	 width="20px" height="44px" viewBox="0 0 20 44" enable-background="new 0 0 20 44" xml:space="preserve">
<g id="FPO">
</g>
<g id="Global_Nav_Small_Icons">
</g>
<g id="Global_Nav_Small_1_">
</g>
<g id="Bag">
</g>
<g id="Global_Nav_Large_1_">
</g>
<g id="Guides">
</g>
<g id="NOTES">
</g>
<g>
	<path fill="#FFFFFF" d="M3.707,19.664c1.044-2.871,3.851-4.59,6.754-4.384c-0.654,0.61-1.186,1.486-1.135,2.722
		c0.083,0.755,0.317,1.345,0.467,1.679c0.402,0.884,1.856,2.846,2.437,4.562c0.579,1.719-0.392,3.229-0.392,3.229
		c3.607-1.639,2.28-4.583,0.979-6.802c-1.301-2.221-1.68-3.441-1.299-4.488c0.078-0.214,0.22-0.428,0.386-0.626
		c0.368-0.44,0.868-0.811,1.121-0.987c-0.933-0.462-2.167-0.563-2.167-0.563v0.002c-3.578-0.394-7.091,1.681-8.376,5.211
		c-1.323,3.638,0.16,7.608,3.34,9.548l0.411-0.257c0.244-0.156,0.521-0.37,0.75-0.584C3.995,26.423,2.535,22.886,3.707,19.664z"/>
	<path fill="#FFFFFF" d="M14.176,15.233l-0.409,0.258c-0.245,0.154-0.522,0.369-0.753,0.584c2.993,1.503,4.453,5.039,3.279,8.262
		c-1.045,2.871-3.852,4.59-6.754,4.383c0.657-0.609,1.186-1.486,1.134-2.721c-0.083-0.756-0.316-1.346-0.468-1.68
		c-0.4-0.885-1.855-2.844-2.436-4.562c-0.58-1.718,0.391-3.23,0.391-3.23c-3.606,1.64-2.278,4.581-0.979,6.802
		c1.301,2.221,1.681,3.441,1.298,4.489c-0.078,0.214-0.219,0.427-0.383,0.626c-0.37,0.439-0.869,0.81-1.124,0.986
		c0.933,0.463,2.167,0.564,2.167,0.564s0-0.002,0-0.003c3.577,0.394,7.092-1.681,8.376-5.21
		C18.841,21.144,17.356,17.175,14.176,15.233z"/>
</g>
</svg>
