<?xml version="1.0" encoding="utf-8"?>
<!-- Generator: Adobe Illustrator 14.0.0, SVG Export Plug-In . SVG Version: 6.00 Build 43363)  -->
<!DOCTYPE svg PUBLIC "-//W3C//DTD SVG 1.1//EN" "http://www.w3.org/Graphics/SVG/1.1/DTD/svg11.dtd">
<svg version="1.1" id="Global_Nav_Small_Icons" xmlns="http://www.w3.org/2000/svg" xmlns:xlink="http://www.w3.org/1999/xlink"
	 x="0px" y="0px" width="21px" height="48px" viewBox="0 0 21 48" enable-background="new 0 0 21 48" xml:space="preserve">
<g>
	<path fill="#FFFFFF" d="M2.242,20.935c1.369-3.768,5.054-6.023,8.864-5.753c-0.86,0.8-1.558,1.949-1.491,3.572
		c0.11,0.991,0.416,1.766,0.613,2.203c0.528,1.161,2.437,3.734,3.199,5.986c0.759,2.256-0.515,4.238-0.515,4.238
		c4.735-2.151,2.993-6.016,1.283-8.927c-1.706-2.914-2.203-4.515-1.704-5.889c0.103-0.282,0.29-0.562,0.509-0.822
		c0.481-0.577,1.138-1.063,1.471-1.295c-1.225-0.607-2.845-0.739-2.845-0.739v0.002c-4.696-0.516-9.306,2.206-10.992,6.839
		c-1.736,4.774,0.209,9.982,4.382,12.531l0.54-0.34c0.32-0.205,0.684-0.482,0.984-0.766C2.62,29.806,0.704,25.161,2.242,20.935z"/>
	<path fill="#FFFFFF" d="M15.98,15.12l-0.535,0.339c-0.322,0.202-0.686,0.483-0.988,0.766c3.928,1.972,5.844,6.613,4.303,10.841
		c-1.371,3.769-5.056,6.024-8.865,5.752c0.863-0.798,1.558-1.948,1.489-3.571c-0.107-0.991-0.415-1.767-0.615-2.206
		c-0.524-1.16-2.433-3.729-3.195-5.984c-0.763-2.254,0.513-4.239,0.513-4.239C3.354,18.97,5.096,22.83,6.8,25.745
		c1.708,2.914,2.206,4.514,1.703,5.89c-0.103,0.281-0.287,0.561-0.502,0.82c-0.485,0.577-1.14,1.064-1.474,1.295
		c1.224,0.608,2.844,0.74,2.844,0.74v-0.002c4.695,0.515,9.307-2.207,10.993-6.838C22.104,22.877,20.154,17.668,15.98,15.12z"/>
</g>
</svg>
