<?xml version="1.0" encoding="utf-8"?>
<!-- Generator: Adobe Illustrator 14.0.0, SVG Export Plug-In . SVG Version: 6.00 Build 43363)  -->
<!DOCTYPE svg PUBLIC "-//W3C//DTD SVG 1.1//EN" "http://www.w3.org/Graphics/SVG/1.1/DTD/svg11.dtd">
<svg version="1.1" id="Calque_1" xmlns="http://www.w3.org/2000/svg" xmlns:xlink="http://www.w3.org/1999/xlink" x="0px" y="0px"
	 width="20px" height="44px" viewBox="0 0 20 44" enable-background="new 0 0 20 44" xml:space="preserve">
<g id="FPO">
</g>
<g id="Global_Nav_Small_Icons">
</g>
<g id="Global_Nav_Small_1_">
</g>
<g id="Bag">
</g>
<g id="Global_Nav_Large_1_">
</g>
<g id="Guides">
</g>
<g id="NOTES">
</g>
<g>
	<path fill="#FFFFFF" d="M2.922,19.373c1.174-3.23,4.332-5.163,7.598-4.931c-0.736,0.686-1.334,1.671-1.277,3.062
		c0.093,0.849,0.356,1.513,0.525,1.889c0.452,0.994,2.087,3.202,2.742,5.131c0.65,1.934-0.441,3.633-0.441,3.633
		c4.059-1.844,2.565-5.156,1.101-7.652c-1.463-2.498-1.889-3.871-1.461-5.048c0.088-0.241,0.249-0.481,0.436-0.704
		c0.413-0.495,0.976-0.912,1.261-1.11c-1.05-0.52-2.438-0.633-2.438-0.633v0.002c-4.025-0.442-7.977,1.891-9.422,5.862
		c-1.488,4.093,0.18,8.558,3.757,10.741l0.462-0.291c0.274-0.176,0.586-0.414,0.844-0.656C3.246,26.977,1.604,22.996,2.922,19.373z"
		/>
	<path fill="#FFFFFF" d="M14.698,14.388l-0.459,0.291c-0.276,0.173-0.588,0.415-0.848,0.657c3.366,1.69,5.009,5.668,3.688,9.293
		c-1.176,3.23-4.333,5.164-7.598,4.93c0.739-0.684,1.334-1.67,1.276-3.061c-0.093-0.85-0.356-1.514-0.527-1.891
		c-0.449-0.994-2.086-3.197-2.74-5.13c-0.653-1.932,0.44-3.633,0.44-3.633c-4.056,1.845-2.563,5.153-1.102,7.652
		c1.463,2.498,1.891,3.869,1.46,5.049c-0.088,0.24-0.247,0.48-0.431,0.703c-0.416,0.494-0.978,0.912-1.264,1.109
		c1.049,0.521,2.438,0.635,2.438,0.635V30.99c4.024,0.441,7.978-1.891,9.423-5.861C19.946,21.038,18.275,16.573,14.698,14.388z"/>
</g>
</svg>
