<?xml version="1.0" encoding="utf-8"?>
<!-- Generator: Adobe Illustrator 14.0.0, SVG Export Plug-In . SVG Version: 6.00 Build 43363)  -->
<!DOCTYPE svg PUBLIC "-//W3C//DTD SVG 1.1//EN" "http://www.w3.org/Graphics/SVG/1.1/DTD/svg11.dtd">
<svg version="1.1" id="Calque_1" xmlns="http://www.w3.org/2000/svg" xmlns:xlink="http://www.w3.org/1999/xlink" x="0px" y="0px"
	 width="19px" height="48px" viewBox="0 0 19 48" enable-background="new 0 0 19 48" xml:space="preserve">
<g>
	<path fill="#FFFFFF" d="M18.092,13.873L3.614,15.438l0.248,19.835l14.888-1.962L18.092,13.873z M13.916,20.51
		c-0.49,0.73-1.262,1.186-2.285,1.367h-0.01c-0.181,0.022-0.361,0.036-0.528,0.036c-0.77,0-1.423-0.226-1.956-0.682
		c-1.271-1.083-1.361-3.062-1.365-3.142c-0.005-0.126,0.094-0.231,0.221-0.24c0.126-0.004,0.229,0.095,0.239,0.222
		c0,0.018,0.085,1.861,1.204,2.813c0.55,0.464,1.263,0.649,2.124,0.537c0.893-0.149,1.555-0.546,1.98-1.169
		c0.811-1.203,0.454-2.876,0.449-2.894c-0.025-0.123,0.054-0.243,0.175-0.27c0.124-0.027,0.245,0.053,0.271,0.174
		C14.458,17.34,14.836,19.144,13.916,20.51z"/>
	<polygon fill="#FFFFFF" points="4.164,14.918 16.906,13.54 15.057,13.287 15.518,12.728 2.641,13.887 5.07,14.216 	"/>
	<polygon fill="#FFFFFF" points="3.925,14.522 0.891,14.103 0.25,33.76 3.402,35.113 3.149,15.117 	"/>
</g>
</svg>
